<svg width="16" height="15" viewBox="0 0 16 15" fill="none" xmlns="http://www.w3.org/2000/svg">
<path d="M11.0589 0.530179L14.9826 4.45377C15.6764 5.14766 15.6764 6.27266 14.9826 6.96657L8.12663 13.8215L12.942 13.8216C13.2418 13.8216 13.4897 14.0444 13.5289 14.3335L13.5343 14.4139C13.5343 14.7137 13.3115 14.9615 13.0224 15.0007L12.942 15.0062L6.30073 15.0071C5.81412 15.0336 5.31867 14.8611 4.94694 14.4894L1.02334 10.5657C0.329458 9.87191 0.329458 8.74684 1.02334 8.05302L8.54619 0.530179C9.24001 -0.163706 10.3651 -0.163706 11.0589 0.530179ZM3.03468 7.71559L1.86094 8.89057C1.62964 9.12187 1.62964 9.49689 1.86094 9.72819L5.78454 13.6518C5.90019 13.7675 6.05176 13.8253 6.20333 13.8253L6.22614 13.8216L6.25653 13.8229C6.38992 13.8109 6.52001 13.7539 6.62211 13.6518L7.79575 12.4774L3.03468 7.71559ZM9.38374 1.36777L3.87254 6.87773L8.63361 11.6396L14.1449 6.12896C14.3762 5.89766 14.3762 5.52266 14.1449 5.29136L10.2214 1.36777C9.99006 1.13647 9.61504 1.13647 9.38374 1.36777Z" fill="#333333"/>
</svg>
