<svg width="15" height="15" viewBox="0 0 15 15" fill="none" xmlns="http://www.w3.org/2000/svg">
<path d="M14.217 0.782968C15.261 1.82692 15.261 3.51952 14.217 4.56348L5.27621 13.5043C5.06937 13.7111 4.81214 13.8604 4.52993 13.9374L0.708316 14.9796C0.290071 15.0937 -0.0937052 14.7099 0.0203601 14.2917L1.06262 10.4701C1.13959 10.1878 1.28886 9.93063 1.4957 9.72377L10.4365 0.782968C11.4804 -0.260989 13.1731 -0.260989 14.217 0.782968ZM9.71227 3.092L2.28806 10.5162C2.21911 10.5851 2.16935 10.6708 2.1437 10.7649L1.35942 13.6406L4.2351 12.8563C4.32917 12.8306 4.41491 12.7809 4.48386 12.7119L11.9078 5.28754L9.71227 3.092ZM11.2288 1.57532L10.5041 2.29939L12.6997 4.49568L13.4247 3.77112C14.031 3.16477 14.031 2.18168 13.4247 1.57532C12.8183 0.968973 11.8352 0.968973 11.2288 1.57532Z" fill="none"/>
</svg>
