<svg width="15" height="15" viewBox="0 0 15 15" fill="none" xmlns="http://www.w3.org/2000/svg">
<g clip-path="url(#clip0_717_1688)">
<path d="M7.25145 10.9125C7.26726 10.9282 7.28453 10.9423 7.30301 10.9547L7.33114 10.9699C7.35226 10.9835 7.3757 10.993 7.40028 10.998L7.42958 11.0062C7.47446 11.0151 7.52063 11.0151 7.56551 11.0062L7.59598 10.9969L7.63114 10.9863C7.6432 10.9807 7.65494 10.9745 7.66629 10.9676L7.6909 10.9535C7.71031 10.9405 7.72836 10.9256 7.74481 10.909L10.8983 7.75898C10.9377 7.72837 10.97 7.68975 10.9933 7.64568C11.0166 7.6016 11.0302 7.55308 11.0333 7.50333C11.0364 7.45359 11.0289 7.40375 11.0112 7.35713C10.9936 7.31051 10.9663 7.26818 10.931 7.23294C10.8958 7.19769 10.8534 7.17034 10.8068 7.15271C10.7602 7.13507 10.7104 7.12755 10.6606 7.13064C10.6109 7.13373 10.5624 7.14737 10.5183 7.17064C10.4742 7.19391 10.4356 7.22629 10.405 7.26562L7.85145 9.81563V0.351562C7.85145 0.258322 7.81441 0.168901 7.74848 0.10297C7.68255 0.0370395 7.59313 0 7.49989 0C7.40665 0 7.31723 0.0370395 7.2513 0.10297C7.18536 0.168901 7.14833 0.258322 7.14833 0.351562V9.81563L4.59481 7.26562C4.52717 7.21299 4.44264 7.18688 4.3571 7.1922C4.27156 7.19751 4.19092 7.23389 4.13031 7.29449C4.06971 7.35509 4.03334 7.43574 4.02802 7.52128C4.02271 7.60681 4.04882 7.69135 4.10145 7.75898L7.25145 10.9125Z" fill="#333333"/>
<path d="M14.6484 10.3125C14.5552 10.3125 14.4658 10.3495 14.3998 10.4155C14.3339 10.4814 14.2969 10.5708 14.2969 10.6641V13.2422C14.2969 13.5219 14.1858 13.7902 13.988 13.988C13.7902 14.1858 13.5219 14.2969 13.2422 14.2969H1.75781C1.47809 14.2969 1.20983 14.1858 1.01204 13.988C0.814244 13.7902 0.703125 13.5219 0.703125 13.2422V10.6641C0.703125 10.5708 0.666085 10.4814 0.600155 10.4155C0.534224 10.3495 0.444803 10.3125 0.351562 10.3125C0.258322 10.3125 0.168901 10.3495 0.10297 10.4155C0.0370395 10.4814 0 10.5708 0 10.6641L0 13.2422C0 13.7084 0.185198 14.1555 0.514851 14.4851C0.844505 14.8148 1.29161 15 1.75781 15H13.2422C13.7084 15 14.1555 14.8148 14.4851 14.4851C14.8148 14.1555 15 13.7084 15 13.2422V10.6641C15 10.5708 14.963 10.4814 14.897 10.4155C14.8311 10.3495 14.7417 10.3125 14.6484 10.3125Z" fill="#333333"/>
</g>
<defs>
<clipPath id="clip0_717_1688">
<rect width="15" height="15" fill="white"/>
</clipPath>
</defs>
</svg>
